<svg xmlns="http://www.w3.org/2000/svg" viewBox="0 0 1200 760">
  <rect width="1200" height="760" fill="#111"/>
  <rect x="100" y="100" width="1000" height="560" rx="34" fill="#f2f2f2"/>
  <rect x="100" y="100" width="1000" height="86" rx="34" fill="#202020"/>
  <circle cx="155" cy="143" r="12" fill="#ff2a2a"/>
  <circle cx="195" cy="143" r="12" fill="#fff" opacity=".75"/>
  <circle cx="235" cy="143" r="12" fill="#fff" opacity=".45"/>
  <rect x="300" y="124" width="520" height="38" rx="19" fill="#fff"/>
  <circle cx="600" cy="390" r="130" fill="#ff2a2a"/>
  <path d="M510 390a90 90 0 0 0 180 0a90 90 0 0 0-180 0m45 0a45 45 0 0 1 90 0a45 45 0 0 1-90 0" fill="#fff"/>
  <rect x="180" y="555" width="260" height="30" rx="15" fill="#111"/>
  <rect x="760" y="555" width="220" height="30" rx="15" fill="#111" opacity=".45"/>
  <text x="450" y="625" font-family="Arial, sans-serif" font-size="42" font-weight="900" fill="#111">Kairo Browser</text>
</svg>
